<svg width="298" height="40" viewBox="0 0 298 40" fill="none" xmlns="http://www.w3.org/2000/svg">
<g clip-path="url(#clip0_4497_9881)">
<mask id="mask0_4497_9881" style="mask-type:luminance" maskUnits="userSpaceOnUse" x="0" y="0" width="298" height="40">
<path d="M297.535 0H0V40H297.535V0Z" fill="white"/>
</mask>
<g mask="url(#mask0_4497_9881)">
<path d="M108.188 39.081C108.681 36.6753 109.165 34.2846 109.74 31.4829C114.716 31.4829 119.528 31.4829 124.331 31.4829C130.428 31.4829 136.532 31.4829 142.628 31.4829C143.749 31.4829 144.892 31.5352 145.983 31.3335C148.112 30.9376 150.645 30.2801 150.145 27.6279C149.921 26.4624 147.551 25.1027 146.012 24.9009C139.976 24.124 133.872 23.8102 127.805 23.2424C125.46 23.0257 123.069 22.8315 120.805 22.2338C115.209 20.747 113.028 16.6529 114.641 11.0646C116.524 4.54981 121.507 1.28496 127.634 1.00853C139.288 0.470614 150.989 0.851637 163.115 0.851637C162.696 3.01824 162.621 5.18485 161.776 6.9779C161.343 7.89684 159.52 8.62153 158.317 8.63647C149.359 8.77095 140.394 8.71118 131.429 8.71118C130.928 8.71118 130.429 8.6813 129.936 8.71118C127.261 8.92037 123.532 8.48705 123.622 12.1927C123.704 15.4127 127.44 14.6507 129.682 14.9196C136.839 15.7788 144.1 15.8909 151.175 17.1385C160.603 18.8046 162.942 27.1871 156.397 34.3668C152.931 38.1695 148.322 39.3724 143.57 39.4695C132.244 39.7011 120.917 39.5367 109.584 39.5068C109.24 39.5068 108.896 39.3051 108.188 39.0735V39.081Z" fill="black"/>
<path d="M289.128 39.5438C286.341 39.5438 283.98 39.6035 281.627 39.5288C276.532 39.3719 272.46 37.2352 269.86 32.7974C266.214 26.5666 262.792 20.2087 259.169 13.9704C258.041 12.0279 257.07 9.66706 253.864 9.73429C251.997 17.8479 250.166 25.8269 248.321 33.7985C247.41 37.7233 244.952 39.6409 240.947 39.5513C240.215 39.5363 239.483 39.4317 238.25 39.3271C241.156 26.447 244.01 13.7612 246.857 1.15006C257.705 -1.18838 263.599 1.33683 268.724 10.6682C271.541 15.7933 273.984 21.1351 276.845 26.2378C277.847 28.0309 279.595 29.4056 280.999 30.967C281.395 30.8251 281.799 30.6831 282.195 30.5412C283.039 26.97 283.898 23.3988 284.72 19.8202C285.885 14.725 287.208 9.65211 288.097 4.50456C288.62 1.48626 289.755 0.0667557 292.938 0.574787C294.373 0.806389 295.874 0.612142 297.488 0.612142C297.488 1.47131 297.578 1.9644 297.473 2.42014C294.724 14.6876 291.959 26.9476 289.12 39.5288L289.128 39.5438Z" fill="black"/>
<path d="M55.7415 39.5585C52.7157 39.5585 50.2353 39.8051 47.8521 39.439C46.9257 39.2971 45.8199 37.9 45.4613 36.8465C43.1453 30.0927 43.2051 30.0703 35.9582 30.0703C30.2279 30.0703 24.4976 29.9284 18.7747 30.1674C17.3328 30.2272 15.9133 31.4749 14.5312 32.2668C14.1352 32.4984 13.8439 32.999 13.6272 33.4397C10.8778 39.0654 6.46993 40.9706 0 39.0729C0.672394 38.0494 1.3149 36.9586 2.05454 35.95C8.83825 26.7083 15.6518 17.4891 22.4281 8.2399C26.1636 3.14464 30.6836 -0.389165 37.415 0.0366846C41.3896 0.283229 44.5723 1.9941 45.7676 5.81928C49.1894 16.8167 52.3198 27.9112 55.734 39.5585H55.7415ZM41.0086 22.0315C39.8431 17.9 38.9316 14.3064 37.8035 10.7875C36.8472 7.80658 33.8663 6.94741 31.7968 9.3232C28.4348 13.1857 25.5062 17.4218 21.9798 22.0315H41.0086Z" fill="black"/>
<path d="M169.765 1.1586C170.326 0.874706 170.438 0.777582 170.55 0.770111C176.273 0.272041 179.916 2.77982 181.48 8.29346C183.265 14.6364 184.924 21.0241 186.837 27.3297C187.292 28.8239 188.675 31.2893 189.392 31.2072C191.222 30.998 193.486 30.0417 194.584 28.6147C200.299 21.2333 206.187 13.9117 211.058 5.9849C214.494 0.396559 218.783 -0.059175 224.737 1.07642C221.338 5.77571 218.103 10.2733 214.846 14.7559C210.161 21.2034 205.544 27.6958 200.74 34.0462C197.423 38.4242 192.866 40.277 187.352 39.9632C182.832 39.7092 179.769 37.5725 178.551 33.2468C175.548 22.608 172.701 11.9244 169.758 1.15113L169.765 1.1586Z" fill="black"/>
<path d="M103.576 30.7277C102.306 39.566 102.306 39.6257 93.9164 39.551C86.2138 39.4838 78.4887 39.6183 70.8234 39.028C62.7846 38.4079 59.4151 34.2765 60.6329 26.2301C61.9104 17.7729 64.0995 9.45762 65.9299 0.880859H74.8802C73.2216 8.30708 71.6228 15.5465 69.9941 22.7785C68.6344 28.8151 69.9194 30.6306 76.083 30.7053C85.1454 30.8174 94.2153 30.7352 103.576 30.7352V30.7277Z" fill="black"/>
<path d="M229.577 0.822266H238.46C235.643 13.3064 232.924 25.544 230.047 37.7517C229.876 38.4913 228.591 39.3729 227.731 39.4775C225.669 39.7315 223.555 39.5597 220.828 39.5597C223.802 26.3957 226.663 13.7024 229.569 0.822266H229.577Z" fill="black"/>
</g>
</g>
<defs>
<clipPath id="clip0_4497_9881">
<rect width="298" height="40" fill="white"/>
</clipPath>
</defs>
</svg>
