<svg width="281" height="40" viewBox="0 0 281 40" fill="none" xmlns="http://www.w3.org/2000/svg">
<g clip-path="url(#clip0_4497_9873)">
<path d="M20.5846 39.9955C15.2596 40.0325 11.1363 39.6257 8.215 38.7752C5.25659 37.8876 3.18578 36.2051 2.00244 33.7275C0.597213 30.7691 -0.0684165 26.1652 0.00554767 19.9156C-0.0314344 14.6645 0.412319 10.6153 1.33681 7.7679C2.44619 4.47676 4.72042 2.31346 8.15953 1.27801C11.1179 0.390506 15.278 -0.0347842 20.6401 0.00222169C24.9297 0.00222169 30.2362 0.372042 36.5597 1.1116V7.15774C31.3086 6.41818 26.2055 6.04836 21.2502 6.04836C18.144 6.04836 15.8697 6.14083 14.4275 6.3257C11.6171 6.69552 9.80506 7.78637 8.99156 9.59838C8.25192 11.1885 7.88218 14.6461 7.88218 19.9711C7.88218 23.2253 7.97458 25.6105 8.15953 27.1266C8.52927 30.085 9.58318 31.9895 11.3213 32.84C12.8374 33.5795 16.0546 33.9493 20.9729 33.9493C26.3349 33.9493 31.5305 33.672 36.5597 33.1173V39.1634C31.0128 39.7181 25.6878 39.9955 20.5846 39.9955ZM60.9609 39.9955C55.5989 39.9955 49.3679 39.5517 42.2678 38.6642V32.84C48.9981 33.7275 54.7668 34.1712 59.5742 34.1712C62.1997 34.1712 64.1781 34.0787 65.5094 33.8939C67.3214 33.672 68.3938 33.0064 68.7266 31.897C68.9115 31.2684 69.004 30.3993 69.004 29.2899C69.004 28.1805 68.893 27.367 68.6711 26.8493C68.3753 26.1837 67.8206 25.6105 67.0071 25.1297C65.5649 24.2792 61.9224 23.3177 56.0796 22.2453C49.2754 21.099 45.2447 19.287 43.9874 16.8094C43.1738 15.2932 42.7855 13.2409 42.8225 10.6523C42.8225 8.65541 43.0074 6.97287 43.3772 5.60461C43.747 4.16241 44.5051 3.03456 45.6514 2.22099C47.7223 0.704857 51.8824 -0.0162419 58.132 0.0576906C62.6065 0.0576906 67.9685 0.390506 74.218 1.05614V6.8804C68.1535 6.21477 62.9578 5.88195 58.6312 5.88195C56.3015 5.88195 54.5635 5.97443 53.4171 6.1593C52.0119 6.38117 51.1799 6.97287 50.921 7.93431C50.7361 8.52601 50.6437 9.35804 50.6437 10.4304C50.6437 11.3919 50.7546 12.1315 50.9765 12.6492C51.2354 13.2409 51.716 13.7216 52.4187 14.0914C53.5651 14.72 56.7453 15.5151 61.9594 16.4766C69.836 17.6969 74.4029 19.6753 75.6602 22.4118C76.4737 23.9649 76.8619 26.0912 76.8255 28.7907C76.8255 31.0465 76.6218 32.8954 76.2153 34.3376C75.6232 36.4454 74.2735 37.9061 72.1657 38.7197C69.799 39.6072 66.0641 40.0325 60.9609 39.9955ZM98.8079 39.9955C93.4829 39.9955 88.1761 39.6442 82.8883 38.9416V33.1173C88.1024 33.8939 93.0764 34.2822 97.8095 34.2822C100.102 34.2822 101.932 34.1712 103.301 33.9493C104.669 33.6905 105.668 33.2652 106.296 32.6735C107.184 31.786 107.609 30.3254 107.572 28.2915C107.572 26.9232 107.406 25.8324 107.073 25.0188C106.703 24.1313 106.093 23.4657 105.242 23.0219C103.652 22.1714 100.398 21.7461 95.4798 21.7461H88.9344V16.1992H95.1469C99.4735 16.2362 102.376 15.8479 103.856 15.0344C105.261 14.2208 105.926 12.7786 105.852 10.7078C105.852 8.78481 105.242 7.45355 104.022 6.71399C102.913 6.04836 100.86 5.71554 97.8649 5.71554C93.2055 5.71554 88.5461 6.10383 83.8867 6.8804V1.1116C88.5089 0.372042 93.3347 0.00222169 98.3642 0.00222169C104.096 0.00222169 108.089 0.686315 110.345 2.05458C112.602 3.42285 113.729 5.88195 113.729 9.43198C113.729 11.9466 113.212 13.9065 112.176 15.3117C111.104 16.7539 109.365 17.8263 106.962 18.5289C109.957 19.0466 112.121 20.045 113.452 21.5243C114.746 23.0035 115.393 25.2037 115.393 28.1251C115.504 32.6365 114.357 35.7614 111.954 37.4994C109.551 39.2374 105.169 40.0694 98.8079 39.9955ZM138.568 15.3117C145.595 15.2008 150.18 16.2177 152.325 18.3625C154.026 20.1005 154.84 23.0035 154.765 27.0712C154.765 29.4748 154.562 31.4717 154.155 33.0618C153.749 34.6889 153.046 35.9832 152.047 36.9447C149.903 39.0525 145.632 40.0509 139.234 39.94C133.243 39.94 127.567 39.5333 122.205 38.7197V32.9509C127.752 33.8014 132.892 34.2267 137.625 34.2267C141.434 34.2267 143.93 33.7829 145.114 32.8954C146.297 32.0079 146.889 30.159 146.889 27.3485C146.889 26.0172 146.759 24.9633 146.5 24.1868C146.242 23.3732 145.761 22.7261 145.058 22.2453C143.838 21.3948 141.342 20.9696 137.57 20.9696C133.724 20.9696 129.009 21.2654 123.425 21.8571L124.535 0.889729H152.768V6.60305H132.023L131.524 15.6445C133.928 15.4226 136.276 15.3117 138.568 15.3117Z" fill="black"/>
<mask id="mask0_4497_9873" style="mask-type:luminance" maskUnits="userSpaceOnUse" x="168" y="1" width="113" height="39">
<path d="M280.559 1.91797H168.828V39.954H280.559V1.91797Z" fill="white"/>
</mask>
<g mask="url(#mask0_4497_9873)">
<path d="M195.813 11.8401C195.012 11.7371 193.919 11.6816 192.548 11.6816H185.828V21.4759H192.548C193.942 21.4759 195.044 21.4204 195.844 21.3174C197.342 21.1272 198.182 20.3665 198.348 19.0353C198.451 18.4251 198.507 17.6168 198.507 16.6263C198.507 15.5249 198.443 14.6532 198.317 13.9955C198.126 12.7514 197.294 12.0303 195.813 11.8401Z" fill="black"/>
<path d="M276.597 1.91797H172.79C170.603 1.91797 168.828 3.69298 168.828 5.88005V35.9919C168.828 38.1789 170.603 39.954 172.79 39.954H276.597C278.784 39.954 280.559 38.1789 280.559 35.9919V5.88005C280.559 3.69298 278.784 1.91797 276.597 1.91797ZM201.198 20.0802C200.881 21.6254 200.002 22.6397 198.568 23.123C197.236 23.5906 195.168 23.8124 192.355 23.7887H185.825V31.2374H182.846V9.36668H192.355C194.296 9.36668 195.873 9.46177 197.078 9.65195C199.019 9.9293 200.271 10.6979 200.818 11.9658C201.285 13.0197 201.507 14.5649 201.484 16.5935C201.484 17.9882 201.389 19.153 201.198 20.0802ZM223.188 31.2374H208.005C206.634 31.2136 205.937 30.5084 205.913 29.1137V9.36668H208.893V28.3213C208.893 28.7016 209.091 28.8918 209.495 28.8918H223.188V31.2374ZM246.493 22.711C246.517 25.1833 246.303 27.0772 245.859 28.3847C245.391 29.7397 244.44 30.6431 243.006 31.1106C241.612 31.5306 239.575 31.7366 236.889 31.7128C234.076 31.7366 231.936 31.5306 230.454 31.1106C228.909 30.6668 227.895 29.7476 227.411 28.353C226.944 27.0613 226.722 25.1912 226.746 22.7427V9.36668H229.725V22.6476C229.725 23.5985 229.749 24.383 229.789 24.9931C229.915 26.8553 230.431 28.0598 231.342 28.6066C232.19 29.1137 234.036 29.3673 236.889 29.3673C237.927 29.3673 238.759 29.3435 239.393 29.3039C241.398 29.1771 242.689 28.6699 243.26 27.7824C243.767 26.9583 244.021 25.2388 244.021 22.6159V9.36668H246.493V22.711ZM269.322 28.7016C269.069 29.5258 268.633 30.1518 268.023 30.5717C266.945 31.3325 264.576 31.7128 260.923 31.7128C257.816 31.7128 254.544 31.4672 251.097 30.9838V28.7333C254.71 29.2167 257.872 29.4624 260.574 29.4624C262.159 29.4624 263.371 29.4069 264.219 29.3039C265.527 29.1375 266.287 28.6066 266.501 27.719C266.628 27.2357 266.692 26.6017 266.692 25.8172C266.692 25.0328 266.62 24.4147 266.47 24.0105C266.279 23.5272 265.939 23.123 265.455 22.8061C264.592 22.2593 262.436 21.6729 258.989 21.0627C255.146 20.4684 252.848 19.4858 252.111 18.115C251.628 17.2671 251.39 16.0943 251.414 14.5966C251.414 13.4793 251.517 12.5443 251.731 11.8073C251.961 11.0466 252.388 10.4523 252.999 10.0323C254.116 9.23197 256.382 8.85161 259.782 8.89123C262.254 8.89123 265.075 9.05764 268.245 9.39838V11.6488C264.948 11.2923 262.151 11.11 259.845 11.11C258.324 11.11 257.183 11.1734 256.422 11.3002C255.368 11.4904 254.75 11.9579 254.583 12.6948C254.457 13.1386 254.393 13.7329 254.393 14.4698C254.393 15.2068 254.465 15.7615 254.615 16.1815C254.782 16.649 255.091 17.0135 255.534 17.2908C256.271 17.7584 258.197 18.2655 261.303 18.8123C265.614 19.47 268.158 20.5239 268.942 21.982C269.449 22.8457 269.695 24.0502 269.671 25.5954C269.671 26.9266 269.552 27.9647 269.322 28.7016Z" fill="black"/>
</g>
</g>
<defs>
<clipPath id="clip0_4497_9873">
<rect width="281" height="40" fill="white"/>
</clipPath>
</defs>
</svg>
