<svg width="282" height="40" viewBox="0 0 282 40" fill="none" xmlns="http://www.w3.org/2000/svg">
<g clip-path="url(#clip0_4497_9865)">
<path d="M20.5858 39.9977C15.2604 40.0347 11.1369 39.6278 8.21547 38.7773C5.25689 37.8897 3.18596 36.2071 2.00255 33.7293C0.597253 30.7708 -0.0684135 26.1666 0.00554685 19.9167C-0.0314293 14.6653 0.412349 10.6159 1.33688 7.76833C2.44632 4.47701 4.72068 2.31359 8.15999 1.27808C11.1185 0.390528 15.2789 -0.0347861 20.6412 0.00222181C24.9311 0.00222181 30.2379 0.372063 36.5618 1.11167V7.15814C31.3104 6.41853 26.2069 6.04869 21.2514 6.04869C18.145 6.04869 15.8706 6.14117 14.4284 6.32605C11.6177 6.69589 9.80562 7.7868 8.99208 9.59891C8.25239 11.1891 7.88263 14.6469 7.88263 19.9722C7.88263 23.2266 7.97503 25.6119 8.15999 27.1281C8.52975 30.0866 9.58373 31.9912 11.3219 32.8418C12.8381 33.5814 16.0555 33.9512 20.9741 33.9512C26.3363 33.9512 31.5323 33.6738 36.5618 33.1191V39.1656C31.0145 39.7203 25.6892 39.9977 20.5858 39.9977ZM60.9643 39.9977C55.602 39.9977 49.3706 39.5539 42.2702 38.6664V32.8418C49.0008 33.7293 54.7699 34.1731 59.5775 34.1731C62.2032 34.1731 64.1817 34.0806 65.513 33.8957C67.3251 33.6738 68.3976 33.0082 68.7304 31.8987C68.9153 31.2701 69.0078 30.401 69.0078 29.2915C69.0078 28.1821 68.8968 27.3685 68.6749 26.8508C68.3791 26.1851 67.8244 25.6119 67.0108 25.1311C65.5685 24.2806 61.9258 23.319 56.0827 22.2466C49.2781 21.1001 45.2472 19.2881 43.9898 16.8103C43.1762 15.2941 42.7879 13.2416 42.8249 10.6529C42.8249 8.65589 43.0098 6.97326 43.3796 5.60491C43.7495 4.16264 44.5075 3.03473 45.654 2.22111C47.7249 0.704896 51.8853 -0.0162428 58.1352 0.0576938C62.61 0.0576938 67.9723 0.390527 74.2222 1.05619V6.88078C68.1572 6.21511 62.9613 5.88228 58.6345 5.88228C56.3046 5.88228 54.5665 5.97476 53.4201 6.15964C52.0148 6.38153 51.1827 6.97326 50.9238 7.93475C50.739 8.52648 50.6465 9.35856 50.6465 10.431C50.6465 11.3925 50.7574 12.1322 50.9793 12.6499C51.2382 13.2416 51.7189 13.7223 52.4216 14.0922C53.568 14.7208 56.7484 15.516 61.9628 16.4775C69.8399 17.6979 74.407 19.6764 75.6644 22.413C76.4781 23.9662 76.8664 26.0926 76.8291 28.7923C76.8291 31.0482 76.6263 32.8972 76.2189 34.3395C75.6274 36.4475 74.2776 37.9082 72.1697 38.7218C69.8028 39.6094 66.0677 40.0347 60.9643 39.9977ZM100.589 15.3126C107.615 15.2016 112.201 16.2186 114.346 18.3635C116.046 20.1016 116.86 23.0047 116.787 27.0727C116.787 29.4764 116.583 31.4734 116.176 33.0637C115.769 34.6908 115.067 35.9852 114.068 36.9467C111.923 39.0547 107.652 40.0532 101.254 39.9422C95.2633 39.9422 89.5861 39.5354 84.2244 38.7218V32.9527C89.7716 33.8033 94.9115 34.2286 99.6456 34.2286C103.454 34.2286 105.95 33.7848 107.134 32.8972C108.318 32.0097 108.909 30.1606 108.909 27.35C108.909 26.0187 108.78 24.9647 108.521 24.1881C108.262 23.3745 107.781 22.7274 107.079 22.2466C105.859 21.396 103.362 20.9707 99.5901 20.9707C95.7435 20.9707 91.0284 21.2665 85.4447 21.8583L86.5542 0.889778H114.79V6.60341H94.0429L93.5437 15.6454C95.9472 15.4235 98.2953 15.3126 100.589 15.3126ZM140.147 15.3126C147.173 15.2016 151.759 16.2186 153.904 18.3635C155.605 20.1016 156.419 23.0047 156.345 27.0727C156.345 29.4764 156.142 31.4734 155.734 33.0637C155.328 34.6908 154.625 35.9852 153.626 36.9467C151.482 39.0547 147.211 40.0532 140.812 39.9422C134.821 39.9422 129.145 39.5354 123.782 38.7218V32.9527C129.33 33.8033 134.47 34.2286 139.204 34.2286C143.013 34.2286 145.509 33.7848 146.692 32.8972C147.876 32.0097 148.468 30.1606 148.468 27.35C148.468 26.0187 148.338 24.9647 148.079 24.1881C147.821 23.3745 147.34 22.7274 146.637 22.2466C145.417 21.396 142.92 20.9707 139.148 20.9707C135.302 20.9707 130.587 21.2665 125.003 21.8583L126.112 0.889778H154.348V6.60341H133.601L133.102 15.6454C135.506 15.4235 137.854 15.3126 140.147 15.3126Z" fill="black"/>
<mask id="mask0_4497_9865" style="mask-type:luminance" maskUnits="userSpaceOnUse" x="169" y="1" width="113" height="39">
<path d="M281.354 1.91797H169.617V39.9561H281.354V1.91797Z" fill="white"/>
</mask>
<g mask="url(#mask0_4497_9865)">
<path d="M196.602 11.8401C195.802 11.7371 194.708 11.6816 193.337 11.6816H186.617V21.4764H193.337C194.732 21.4764 195.833 21.421 196.634 21.318C198.132 21.1278 198.972 20.367 199.138 19.0357C199.241 18.4255 199.297 17.6172 199.297 16.6266C199.297 15.5251 199.233 14.6534 199.106 13.9956C198.916 12.7515 198.084 12.0303 196.602 11.8401Z" fill="black"/>
<path d="M277.392 1.91797H173.579C171.392 1.91797 169.617 3.69308 169.617 5.88027V35.9938C169.617 38.1809 171.392 39.9561 173.579 39.9561H277.392C279.579 39.9561 281.354 38.1809 281.354 35.9938V5.88027C281.354 3.69308 279.579 1.91797 277.392 1.91797ZM201.989 20.0812C201.672 21.6265 200.793 22.6408 199.358 23.1242C198.027 23.5918 195.959 23.8136 193.145 23.7899H186.615V31.239H183.636V9.36709H193.145C195.087 9.36709 196.664 9.46219 197.868 9.65238C199.81 9.92974 201.062 10.6984 201.609 11.9664C202.076 13.0203 202.298 14.5656 202.274 16.5943C202.274 17.9891 202.179 19.154 201.989 20.0812ZM223.98 31.239H208.796C207.425 31.2152 206.728 30.5099 206.704 29.1152V9.36709H209.684V28.3227C209.684 28.7031 209.882 28.8933 210.286 28.8933H223.98V31.239ZM247.286 22.7121C247.31 25.1846 247.096 27.0786 246.652 28.3861C246.185 29.7412 245.234 30.6446 243.799 31.1122C242.405 31.5322 240.368 31.7382 237.682 31.7145C234.868 31.7382 232.729 31.5322 231.247 31.1122C229.702 30.6684 228.687 29.7492 228.204 28.3544C227.736 27.0627 227.514 25.1925 227.538 22.7438V9.36709H230.518V22.6487C230.518 23.5997 230.542 24.3842 230.581 24.9944C230.708 26.8567 231.223 28.0612 232.134 28.608C232.982 29.1152 234.829 29.3688 237.682 29.3688C238.72 29.3688 239.552 29.345 240.186 29.3054C242.191 29.1786 243.482 28.6714 244.053 27.7839C244.56 26.9597 244.814 25.2401 244.814 22.617V9.36709H247.286V22.7121ZM270.117 28.7031C269.863 29.5273 269.428 30.1533 268.817 30.5733C267.74 31.3341 265.37 31.7145 261.717 31.7145C258.61 31.7145 255.338 31.4688 251.89 30.9854V28.7348C255.504 29.2182 258.666 29.4639 261.368 29.4639C262.953 29.4639 264.166 29.4084 265.014 29.3054C266.321 29.139 267.082 28.608 267.296 27.7205C267.423 27.2371 267.486 26.6031 267.486 25.8186C267.486 25.034 267.415 24.4159 267.264 24.0118C267.074 23.5284 266.733 23.1242 266.25 22.8072C265.386 22.2604 263.23 21.674 259.783 21.0638C255.94 20.4695 253.642 19.4868 252.905 18.1159C252.421 17.2679 252.184 16.0951 252.207 14.5973C252.207 13.48 252.31 12.5449 252.524 11.8079C252.754 11.0471 253.182 10.4528 253.792 10.0328C254.91 9.23238 257.176 8.85199 260.576 8.89162C263.048 8.89162 265.869 9.05803 269.039 9.39879V11.6494C265.743 11.2928 262.945 11.1105 260.639 11.1105C259.118 11.1105 257.976 11.1739 257.216 11.3007C256.162 11.4909 255.544 11.9584 255.377 12.6954C255.25 13.1392 255.187 13.7336 255.187 14.4705C255.187 15.2075 255.258 15.7622 255.409 16.1823C255.575 16.6498 255.884 17.0143 256.328 17.2917C257.065 17.7592 258.991 18.2664 262.097 18.8132C266.408 19.471 268.952 20.5249 269.737 21.9831C270.244 22.8468 270.489 24.0514 270.466 25.5967C270.466 26.928 270.347 27.9661 270.117 28.7031Z" fill="black"/>
</g>
</g>
<defs>
<clipPath id="clip0_4497_9865">
<rect width="282" height="40" fill="white"/>
</clipPath>
</defs>
</svg>
