<svg width="299" height="40" viewBox="0 0 299 40" fill="none" xmlns="http://www.w3.org/2000/svg">
<g clip-path="url(#clip0_4497_9858)">
<path d="M70.8516 39.1721C72.2634 35.4642 73.5041 31.9988 74.9017 28.5904C78.0819 20.8039 81.3619 13.0744 84.5136 5.27363C85.4549 2.94908 86.9665 1.79393 89.4622 1.56576C93.2557 1.23775 97.0348 1.28053 100.515 2.89203C108.258 6.45729 115.916 10.1937 123.617 13.8588C126.384 15.185 129.179 16.4543 131.932 17.8091C132.787 18.2369 133.486 18.2369 133.985 17.424C134.941 15.8981 135.953 14.3864 136.709 12.7464C137.422 11.2062 137.779 9.50915 138.349 7.91192C140.645 1.48019 144.553 -0.445053 151.213 1.58002C151.141 1.89376 151.127 2.23602 151.013 2.53551C146.521 13.6449 141.986 24.7399 137.55 35.8636C136.78 37.7888 135.525 38.5161 133.572 38.673C130.092 38.9439 126.783 38.5589 123.589 37.0757C112.865 32.1129 102.112 27.1928 91.4017 22.1872C90.0469 21.5597 89.12 21.6738 88.3784 22.8432C87.4514 24.3264 86.5244 25.838 85.8257 27.4353C84.9272 29.5174 84.371 31.7421 83.4726 33.8242C81.6044 38.1168 78.8805 39.7568 74.2029 39.5572C73.1904 39.5144 72.1921 39.3147 70.8658 39.1579L70.8516 39.1721Z" fill="black"/>
<path d="M31.9013 1.45118C29.3913 8.26796 27.0097 14.6426 24.728 21.0744C24.0577 22.9853 23.5158 24.9962 23.2733 27.007C22.9739 29.4028 24.0007 30.9573 26.3822 31.3566C29.3913 31.87 32.4717 32.0839 35.5378 32.1409C39.1174 32.198 42.7111 32.0839 46.2764 31.7987C50.0128 31.4992 53.1645 29.688 54.8901 26.3795C57.6567 21.0458 60.024 15.4983 62.5482 10.0363C63.4752 8.02552 64.3166 5.97193 65.2721 3.97538C66.413 1.57953 68.324 0.552734 70.9908 0.980565C72.8304 1.28005 74.6844 1.56527 76.5098 1.86475C76.5526 2.16423 76.6524 2.36389 76.5954 2.47797C72.9445 10.7351 69.308 19.0065 65.6144 27.2494C61.7496 35.8488 54.6048 39.4283 45.6489 39.6137C33.9263 39.8562 22.2038 39.7278 10.4812 39.6993C7.87142 39.6993 5.39 39.0575 3.32215 37.3605C-0.0719759 34.5796 -0.613895 30.7291 0.569771 27.064C2.90858 19.7766 5.67522 12.6176 8.55595 5.51558C10.1389 1.59379 13.419 -0.302928 17.6973 0.0393365C22.3321 0.395863 26.967 0.952043 31.887 1.45118H31.9013Z" fill="black"/>
<path d="M221.766 39.7012C223.548 34.4816 225.231 29.4903 226.957 24.4989C229.295 17.7392 231.677 10.9795 233.987 4.21973C234.672 2.22318 235.97 0.968211 238.08 0.939688C244.398 0.868383 250.716 0.911166 257.219 0.911166C256.976 1.70978 256.762 2.5084 256.491 3.2785C252.84 13.8031 249.19 24.3278 245.525 34.8382C244.369 38.1325 242.387 39.6299 238.907 39.6869C233.289 39.7582 227.67 39.7012 221.766 39.7012Z" fill="black"/>
<path d="M273.284 15.5696C280.314 23.5986 287.231 31.4707 294.133 39.357C294.091 39.5709 294.034 39.7706 293.991 39.9845C289.926 39.9845 285.862 40.0273 281.798 39.9702C278.732 39.9275 275.665 39.7421 272.585 39.6422C270.446 39.5709 268.549 38.8579 267.08 37.2892C263.772 33.7667 260.463 30.2442 257.283 26.5934C254.787 23.7412 254.231 20.3043 255.129 16.6677C255.272 16.0687 255.686 15.3272 256.185 15.0562C262.916 11.491 269.619 7.86865 276.45 4.5173C281.398 2.09293 286.703 0.723868 292.251 0.75239C294.247 0.75239 296.23 1.223 298.212 1.4797C298.212 1.63657 298.212 1.79345 298.212 1.95032C289.955 6.45681 281.698 10.9633 273.255 15.5696H273.284Z" fill="black"/>
<path d="M183.096 0.766391C181.628 4.47426 180.258 8.011 178.832 11.5335C175.581 19.591 172.301 27.6342 169.078 35.7059C168.051 38.2872 166.126 39.5849 163.445 39.6277C158.04 39.7133 152.635 39.6562 147.102 39.6562C147.173 39.3425 147.201 38.9717 147.33 38.6294C151.765 27.4488 156.286 16.2824 160.635 5.05896C161.748 2.19249 163.787 0.880479 166.582 0.809174C171.987 0.666564 177.392 0.766391 183.082 0.766391H183.096Z" fill="black"/>
<path d="M191.969 23C192.482 20.0337 194.136 18.5649 196.489 17.7235C200.782 16.1833 205.132 16.7822 209.453 17.5666C210.793 17.809 212.105 18.1941 213.588 18.5363C212.79 20.9322 211.335 22.7006 209.011 23.214C206.501 23.7559 203.848 23.984 201.267 23.927C198.215 23.8557 195.192 23.3423 191.969 23.0143V23Z" fill="black"/>
</g>
<defs>
<clipPath id="clip0_4497_9858">
<rect width="299" height="40" fill="white"/>
</clipPath>
</defs>
</svg>
