<svg width="26" height="14" viewBox="0 0 26 14" fill="none" xmlns="http://www.w3.org/2000/svg">
<path d="M22.6328 1.61177C22.6328 1.20361 22.796 0.792897 23.125 0.479121C23.7805 -0.145879 24.8505 -0.150981 25.5059 0.474019C26.1614 1.09902 26.1667 2.10667 25.5113 2.73167L25.5006 2.74188C24.8452 3.36688 23.7805 3.36688 23.125 2.74188C22.796 2.43065 22.6328 2.01994 22.6328 1.60922V1.61177Z" fill="white" fill-opacity="0.5"/>
<path d="M15.0781 8.80979C15.0781 8.40163 15.2413 7.99346 15.5677 7.67969L15.5918 7.65673C16.2445 7.02918 17.3092 7.02663 17.9673 7.64907C18.6254 8.27152 18.6281 9.28683 17.9753 9.91438L17.9513 9.93989C17.2985 10.5674 16.2338 10.57 15.5757 9.94754C15.244 9.63632 15.0808 9.22305 15.0808 8.81234L15.0781 8.80979ZM18.8528 5.2103C18.8528 4.80214 19.016 4.39142 19.345 4.07765L19.3691 4.05469C20.0245 3.42969 21.0892 3.42969 21.7447 4.05469C22.4001 4.67969 22.4001 5.69499 21.7447 6.31999L21.7206 6.3455C21.0652 6.9705 20.0004 6.9705 19.345 6.3455C19.016 6.03428 18.8528 5.62357 18.8528 5.21285V5.2103Z" fill="white" fill-opacity="0.5"/>
<path d="M11.3203 12.3916C11.3203 11.9834 11.4835 11.5727 11.8099 11.2615C12.2941 10.7997 12.9976 10.6747 13.5969 10.8941C13.8162 10.9707 14.0196 11.0931 14.1961 11.2615C14.8515 11.8865 14.8569 12.8941 14.2015 13.5191L14.1908 13.5319C13.5354 14.1569 12.4706 14.1569 11.8152 13.5319C11.4862 13.2181 11.3203 12.8048 11.3203 12.3916Z" fill="white" fill-opacity="0.5"/>
<path d="M3.76562 5.18734C3.76562 4.77663 3.92881 4.36591 4.25786 4.05469C4.91327 3.42969 5.97799 3.42969 6.63341 4.05469L6.65749 4.07765C7.3129 4.70265 7.3129 5.71795 6.65749 6.34295C6.00207 6.96795 4.93735 6.96795 4.28193 6.34295L4.25786 6.31999C3.92881 6.00622 3.76562 5.59805 3.76562 5.18734ZM7.54029 8.78683C7.54029 8.37867 7.70348 7.96795 8.03252 7.65418C8.68794 7.02918 9.75266 7.02918 10.4081 7.65418L10.4348 7.67714C11.0902 8.30214 11.0902 9.31744 10.4348 9.94244C9.77941 10.5674 8.71469 10.5674 8.05928 9.94244L8.0352 9.91948C7.70883 9.60826 7.54297 9.19754 7.54297 8.78683H7.54029Z" fill="white" fill-opacity="0.5"/>
<path d="M0 1.6014C0 1.19324 0.163186 0.782525 0.492232 0.46875C1.14765 -0.15625 2.20969 -0.15625 2.86778 0.46875C3.5232 1.09375 3.52855 2.11161 2.87313 2.73916C2.21772 3.36416 1.15835 3.37181 0.505608 2.74426L0.494907 2.73406C0.165861 2.42283 0.00267517 2.01212 0.00267517 1.6014H0Z" fill="white" fill-opacity="0.5"/>
</svg>
