<svg width="36" height="36" viewBox="0 0 36 36" fill="none" xmlns="http://www.w3.org/2000/svg">
<rect x="0.949026" y="0.829367" width="34.0845" height="34.0845" rx="17.0422" stroke="white" stroke-width="1.00248"/>
<path d="M11.545 20.5107C11.6343 20.6008 11.7406 20.6723 11.8576 20.721C11.9747 20.7698 12.1003 20.7949 12.2271 20.7949C12.3539 20.7949 12.4795 20.7698 12.5966 20.721C12.7136 20.6723 12.8199 20.6008 12.9092 20.5107L17.3093 16.1107C17.3986 16.0206 17.5048 15.9492 17.6219 15.9004C17.739 15.8516 17.8645 15.8265 17.9914 15.8265C18.1182 15.8265 18.2438 15.8516 18.3608 15.9004C18.4779 15.9492 18.5842 16.0206 18.6735 16.1107L23.0736 20.5107C23.1629 20.6008 23.2691 20.6723 23.3862 20.721C23.5033 20.7698 23.6288 20.7949 23.7557 20.7949C23.8825 20.7949 24.0081 20.7698 24.1251 20.721C24.2422 20.6723 24.3485 20.6008 24.4378 20.5107C24.6167 20.3307 24.7171 20.0872 24.7171 19.8334C24.7171 19.5796 24.6167 19.3361 24.4378 19.1561L20.0281 14.7465C19.4877 14.2067 18.7551 13.9036 17.9914 13.9036C17.2276 13.9036 16.4951 14.2067 15.9547 14.7465L11.545 19.1561C11.3661 19.3361 11.2656 19.5796 11.2656 19.8334C11.2656 20.0872 11.3661 20.3307 11.545 20.5107V20.5107Z" fill="white"/>
</svg>
