<svg width="30" height="30" viewBox="0 0 30 30" fill="none" xmlns="http://www.w3.org/2000/svg">
<path fill-rule="evenodd" clip-rule="evenodd" d="M0 15C0 22.4167 5.41667 28.5833 12.5 29.8333L12.5836 29.7664C12.5557 29.7611 12.5279 29.7556 12.5 29.75V19.1667H8.75V15H12.5V11.6667C12.5 7.91667 14.9167 5.83333 18.3333 5.83333C19.4167 5.83333 20.5833 6 21.6667 6.16667V10H19.75C17.9167 10 17.5 10.9167 17.5 12.0833V15H21.5L20.8333 19.1667H17.5V29.75C17.4721 29.7556 17.4443 29.7611 17.4164 29.7664L17.5 29.8333C24.5833 28.5833 30 22.4167 30 15C30 6.75 23.25 0 15 0C6.75 0 0 6.75 0 15Z" fill="white"/>
</svg>
