<svg width="30" height="30" viewBox="0 0 30 30" fill="none" xmlns="http://www.w3.org/2000/svg">
<path d="M14.9994 0.453125C11.0492 0.453125 10.5534 0.470398 9.00196 0.541004C7.45352 0.611913 6.39658 0.857064 5.47176 1.21676C4.51512 1.58828 3.70363 2.08525 2.89517 2.89403C2.08611 3.70252 1.58915 4.51403 1.21643 5.4704C0.85584 6.39555 0.610393 7.45282 0.540698 9.0007C0.471306 10.5522 0.453125 11.0483 0.453125 14.9986C0.453125 18.9489 0.470701 19.4431 0.541001 20.9946C0.612211 22.5431 0.857355 23.6001 1.21674 24.5249C1.58855 25.4816 2.0855 26.2931 2.89426 27.1016C3.70242 27.9107 4.51391 28.4089 5.46994 28.7804C6.39537 29.1401 7.45261 29.3852 9.00074 29.4562C10.5522 29.5268 11.0477 29.544 14.9975 29.544C18.948 29.544 19.4422 29.5268 20.9937 29.4562C22.5422 29.3852 23.6003 29.1401 24.5257 28.7804C25.4821 28.4089 26.2923 27.9107 27.1005 27.1016C27.9096 26.2931 28.4065 25.4816 28.7792 24.5252C29.1368 23.6001 29.3822 22.5428 29.455 20.9949C29.5247 19.4434 29.5429 18.9489 29.5429 14.9986C29.5429 11.0483 29.5247 10.5525 29.455 9.001C29.3822 7.45252 29.1368 6.39555 28.7792 5.4707C28.4065 4.51403 27.9096 3.70252 27.1005 2.89403C26.2914 2.08494 25.4824 1.58797 24.5248 1.21676C23.5976 0.857064 22.54 0.611913 20.9916 0.541004C19.4401 0.470398 18.9462 0.453125 14.9948 0.453125H14.9994ZM13.6945 3.07434C14.0818 3.07373 14.5139 3.07434 14.9994 3.07434C18.8829 3.07434 19.3432 3.08828 20.8767 3.15797C22.2949 3.22282 23.0646 3.45979 23.5773 3.65888C24.256 3.92252 24.74 4.23767 25.2487 4.74676C25.7578 5.25585 26.073 5.7407 26.3372 6.41949C26.5363 6.93161 26.7735 7.70131 26.8381 9.11949C26.9078 10.6528 26.9229 11.1134 26.9229 14.9952C26.9229 18.8771 26.9078 19.3377 26.8381 20.871C26.7732 22.2892 26.5363 23.0589 26.3372 23.571C26.0736 24.2498 25.7578 24.7331 25.2487 25.2419C24.7397 25.751 24.2563 26.0662 23.5773 26.3298C23.0652 26.5298 22.2949 26.7662 20.8767 26.831C19.3435 26.9007 18.8829 26.9159 14.9994 26.9159C11.1155 26.9159 10.6552 26.9007 9.12195 26.831C7.70382 26.7655 6.93414 26.5286 6.42113 26.3295C5.74236 26.0658 5.25752 25.7507 4.74845 25.2416C4.23937 24.7325 3.92423 24.2489 3.66 23.5698C3.46091 23.0577 3.22365 22.288 3.1591 20.8698C3.08941 19.3365 3.07547 18.8759 3.07547 14.9916C3.07547 11.1074 3.08941 10.6492 3.1591 9.11585C3.22395 7.69767 3.46091 6.92797 3.66 6.41525C3.92363 5.73646 4.23937 5.25161 4.74845 4.74252C5.25752 4.23343 5.74236 3.91828 6.42113 3.65403C6.93384 3.45403 7.70382 3.21767 9.12195 3.15252C10.4637 3.09191 10.9837 3.07373 13.6945 3.0707V3.07434ZM22.7634 5.48949C21.7998 5.48949 21.018 6.2704 21.018 7.23434C21.018 8.19797 21.7998 8.97979 22.7634 8.97979C23.727 8.97979 24.5088 8.19797 24.5088 7.23434C24.5088 6.2707 23.727 5.48888 22.7634 5.48888V5.48949ZM14.9994 7.52888C10.8743 7.52888 7.52988 10.8734 7.52988 14.9986C7.52988 19.1237 10.8743 22.4668 14.9994 22.4668C19.1244 22.4668 22.4676 19.1237 22.4676 14.9986C22.4676 10.8734 19.1241 7.52888 14.999 7.52888H14.9994ZM14.9994 10.1501C17.6768 10.1501 19.8477 12.3207 19.8477 14.9986C19.8477 17.6762 17.6768 19.8471 14.9994 19.8471C12.3216 19.8471 10.151 17.6762 10.151 14.9986C10.151 12.3207 12.3216 10.1501 14.9994 10.1501Z" fill="white"/>
</svg>
