<svg width="30" height="30" viewBox="0 0 30 30" fill="none" xmlns="http://www.w3.org/2000/svg">
<path fill-rule="evenodd" clip-rule="evenodd" d="M2.84705 0.832031C1.73634 0.832031 0.835938 1.73243 0.835938 2.84314V27.1542C0.835938 28.2649 1.73634 29.1653 2.84705 29.1653H27.1582C28.2689 29.1653 29.1693 28.2649 29.1693 27.1542V2.84314C29.1693 1.73243 28.2689 0.832031 27.1582 0.832031H2.84705ZM7.19547 9.63096C8.55294 9.63096 9.65338 8.53052 9.65338 7.17305C9.65338 5.81558 8.55294 4.71514 7.19547 4.71514C5.838 4.71514 4.73756 5.81558 4.73756 7.17305C4.73756 8.53052 5.838 9.63096 7.19547 9.63096ZM11.9044 11.4474H15.978V13.3135C15.978 13.3135 17.0834 11.1027 20.091 11.1027C22.774 11.1027 24.9966 12.4244 24.9966 16.453V24.9483H20.7752V17.4824C20.7752 15.1059 19.5064 14.8445 18.5396 14.8445C16.5332 14.8445 16.1897 16.5752 16.1897 17.7924V24.9483H11.9044V11.4474ZM9.3381 11.4474H5.05285V24.9483H9.3381V11.4474Z" fill="white"/>
</svg>
