<svg width="17" height="17" viewBox="0 0 17 17" fill="none" xmlns="http://www.w3.org/2000/svg">
<path d="M3.27554 3.99133L5.60186 6.31765L6.31765 5.60186L3.99133 3.27554H5.1187V2.27344H2.77449C2.48817 2.27344 2.27344 2.50607 2.27344 2.77449V5.1187H3.27554V3.99133Z" fill="black"/>
<path d="M2.77449 14.7278H5.1187V13.7257H3.99133L6.31765 11.3994L5.60186 10.6836L3.27554 13.0099V11.8825H2.27344V14.2268C2.27344 14.5131 2.48817 14.7278 2.77449 14.7278Z" fill="black"/>
<path d="M11.8864 13.7257V14.7278H14.2307C14.517 14.7278 14.7317 14.4952 14.7317 14.2268V11.8825H13.7296V13.0099L11.4033 10.6836L10.6875 11.3994L13.0138 13.7257H11.8864Z" fill="black"/>
<path d="M11.4033 6.31765L13.7296 3.99133V5.1187H14.7317V2.77449C14.7317 2.48817 14.4991 2.27344 14.2307 2.27344H11.8864V3.27554H13.0138L10.6875 5.60186L11.4033 6.31765Z" fill="black"/>
<path d="M16.4989 0H0.501053C0.214737 0 0 0.232632 0 0.501053V16.4989C0 16.7853 0.232632 17 0.501053 17H16.4989C16.7853 17 17 16.7674 17 16.4989V0.501053C17 0.232632 16.7674 0 16.4989 0ZM15.9979 15.9979H1.00211V1.00211H15.98V15.9979H15.9979Z" fill="black"/>
</svg>
