<svg width="17" height="17" viewBox="0 0 17 17" fill="none" xmlns="http://www.w3.org/2000/svg">
<path d="M16.3445 2.8125L13.1386 0.140868C12.8809 -0.0740606 12.4978 -0.0390488 12.2835 0.218582C12.0688 0.476213 12.1036 0.858915 12.3612 1.07364L15.0355 3.30246C14.755 3.52508 14.5714 3.86468 14.5714 4.25001C14.5714 4.91969 15.116 5.46429 15.7857 5.46429V10.9286C15.7857 11.5983 15.2411 12.1429 14.5714 12.1429C13.9018 12.1429 13.3571 11.5983 13.3571 10.9286V7.89286C13.3571 6.88845 12.5401 6.07144 11.5357 6.07144H10.9286V2.42858C10.9286 1.08943 9.83916 1.07196e-05 8.5 1.07196e-05H3.64286C2.3037 1.07196e-05 1.21429 1.08943 1.21429 2.42858V14.3877L0.102 16.0561C-0.0222619 16.2423 -0.0337976 16.4819 0.0718452 16.6792C0.177488 16.8768 0.38331 17 0.607143 17H11.5357C11.7595 17 11.9654 16.8768 12.0712 16.6792C12.1767 16.4817 12.1651 16.2423 12.0411 16.0561L10.9286 14.3877V7.28572H11.5357C11.8705 7.28572 12.1429 7.55813 12.1429 7.89286V10.9286C12.1429 12.2677 13.2323 13.3571 14.5714 13.3571C15.9106 13.3571 17 12.2677 17 10.9286V4.21156C17 3.66917 16.761 3.15938 16.3445 2.8125ZM8.80357 6.07144H3.33929C3.17171 6.07144 3.03571 5.93544 3.03571 5.76786V2.73215C3.03571 2.56458 3.17171 2.42858 3.33929 2.42858H8.80357C8.97114 2.42858 9.10714 2.56458 9.10714 2.73215V5.76786C9.10714 5.93544 8.97114 6.07144 8.80357 6.07144Z" fill="black"/>
</svg>
