<svg width="21" height="17" viewBox="0 0 21 17" fill="none" xmlns="http://www.w3.org/2000/svg">
<path d="M6.79688 7.48078C6.79688 7.10522 7.10124 6.80078 7.47671 6.80078H12.9151C13.2905 6.80078 13.5949 7.10522 13.5949 7.48078C13.5949 7.85635 13.2905 8.16078 12.9151 8.16078H7.47671C7.10124 8.16078 6.79688 7.85635 6.79688 7.48078Z" fill="black"/>
<path fill-rule="evenodd" clip-rule="evenodd" d="M12.3503 3.4C12.4971 3.09084 12.5793 2.74502 12.5793 2.38C12.5793 1.06556 11.5141 0 10.2 0C8.88593 0 7.82071 1.06556 7.82071 2.38C7.82071 2.74502 7.90286 3.09084 8.04967 3.4H5.48087C4.59343 3.4 3.77291 3.93785 3.47456 4.78366L0.116691 14.3037C-0.368477 15.6792 0.728776 17 2.123 17H18.277C19.6712 17 20.7685 15.6792 20.2833 14.3037L16.9254 4.78366C16.6271 3.93785 15.8066 3.4 14.9191 3.4H12.3503ZM10.2 1.36C10.7632 1.36 11.2197 1.81665 11.2197 2.38C11.2197 2.94335 10.7632 3.4 10.2 3.4C9.63682 3.4 9.18031 2.94335 9.18031 2.38C9.18031 1.81665 9.63682 1.36 10.2 1.36ZM5.48087 4.76C5.12948 4.76 4.85013 4.97134 4.7567 5.23617L1.39883 14.7562C1.26276 15.142 1.5527 15.64 2.123 15.64H18.277C18.8473 15.64 19.1372 15.142 19.0012 14.7562L15.6433 5.23617C15.5499 4.97134 15.2705 4.76 14.9191 4.76H5.48087Z" fill="black"/>
</svg>
