<svg width="17" height="17" viewBox="0 0 17 17" fill="none" xmlns="http://www.w3.org/2000/svg">
<path d="M8.19643 8.5C8.19643 8.43996 8.21424 8.38127 8.24759 8.33134C8.28095 8.28142 8.32836 8.24251 8.38383 8.21953C8.4393 8.19656 8.50034 8.19055 8.55923 8.20226C8.61811 8.21397 8.6722 8.24289 8.71466 8.28534C8.75712 8.3278 8.78603 8.38189 8.79774 8.44077C8.80945 8.49966 8.80344 8.5607 8.78047 8.61617C8.75749 8.67164 8.71858 8.71905 8.66866 8.75241C8.61874 8.78577 8.56004 8.80357 8.5 8.80357C8.41951 8.80352 8.34232 8.77152 8.2854 8.7146C8.22848 8.65768 8.19648 8.5805 8.19643 8.5ZM17 8.5C17 10.1811 16.5015 11.8245 15.5675 13.2223C14.6335 14.6202 13.306 15.7096 11.7528 16.353C10.1996 16.9963 8.49057 17.1646 6.84174 16.8367C5.1929 16.5087 3.67834 15.6992 2.4896 14.5104C1.30085 13.3217 0.491303 11.8071 0.163329 10.1583C-0.164645 8.50943 0.00368291 6.80036 0.647028 5.24719C1.29037 3.69402 2.37984 2.3665 3.77766 1.43251C5.17547 0.498516 6.81886 0 8.5 0C10.7536 0.00252297 12.9141 0.898866 14.5076 2.49238C16.1011 4.08589 16.9975 6.24643 17 8.5ZM9.84145 1.95861L10.3261 5.98682L14.3064 5.20197C13.8376 4.37328 13.1965 3.65488 12.4262 3.09534C11.6559 2.5358 10.7745 2.14815 9.84145 1.95861ZM10.8098 7.74951C10.7913 7.6924 10.7562 7.64208 10.7091 7.60491C10.6619 7.56773 10.6048 7.54537 10.545 7.54066C10.4851 7.53594 10.4252 7.54908 10.3728 7.57842C10.3204 7.60775 10.2779 7.65196 10.2506 7.70546C10.2234 7.75895 10.2126 7.81933 10.2197 7.87896C10.2267 7.93858 10.2513 7.99478 10.2903 8.04044C10.3293 8.08609 10.3809 8.11916 10.4387 8.13546C10.4965 8.15176 10.5578 8.15056 10.6149 8.13201C10.6915 8.10711 10.755 8.05282 10.7915 7.98109C10.8281 7.90937 10.8347 7.82606 10.8098 7.74951ZM9.50358 10.3976C9.53887 10.4462 9.58777 10.4832 9.6441 10.504C9.70043 10.5247 9.76166 10.5284 9.82004 10.5143C9.87842 10.5003 9.93134 10.4693 9.97209 10.4252C10.0128 10.3811 10.0396 10.3259 10.049 10.2666C10.0584 10.2073 10.05 10.1466 10.0249 10.0921C9.99972 10.0375 9.95897 9.99168 9.90778 9.96031C9.85659 9.92894 9.79724 9.91346 9.73724 9.91582C9.67725 9.91817 9.6193 9.93827 9.57073 9.97356C9.53847 9.99699 9.51114 10.0265 9.4903 10.0605C9.46946 10.0945 9.45552 10.1323 9.44927 10.1716C9.44302 10.211 9.44459 10.2512 9.45389 10.29C9.46319 10.3288 9.48015 10.3653 9.50358 10.3976ZM8.19643 6.375C8.19643 6.43504 8.21424 6.49373 8.24759 6.54365C8.28095 6.59358 8.32836 6.63249 8.38383 6.65546C8.4393 6.67844 8.50034 6.68445 8.55923 6.67274C8.61811 6.66102 8.6722 6.63211 8.71466 6.58966C8.75712 6.5472 8.78603 6.49311 8.79774 6.43422C8.80945 6.37534 8.80344 6.3143 8.78047 6.25883C8.75749 6.20336 8.71858 6.15594 8.66866 6.12259C8.61874 6.08923 8.56004 6.07143 8.5 6.07143C8.41949 6.07143 8.34228 6.10341 8.28535 6.16034C8.22841 6.21727 8.19643 6.29449 8.19643 6.375ZM7.58929 8.5C7.58929 8.68012 7.6427 8.8562 7.74277 9.00596C7.84284 9.15573 7.98508 9.27246 8.15149 9.34139C8.3179 9.41032 8.50101 9.42835 8.67767 9.39321C8.85433 9.35807 9.01661 9.27134 9.14397 9.14397C9.27134 9.0166 9.35808 8.85433 9.39322 8.67767C9.42836 8.50101 9.41032 8.31789 9.34139 8.15148C9.27246 7.98507 9.15573 7.84284 9.00597 7.74277C8.8562 7.6427 8.68012 7.58928 8.5 7.58928C8.25855 7.58955 8.02706 7.68558 7.85632 7.85632C7.68559 8.02705 7.58955 8.25854 7.58929 8.5ZM7.00537 10.0407C6.97008 10.0893 6.94998 10.1472 6.94762 10.2072C6.94526 10.2672 6.96075 10.3266 6.99212 10.3778C7.02349 10.429 7.06933 10.4697 7.12386 10.4948C7.17838 10.52 7.23914 10.5284 7.29844 10.519C7.35774 10.5096 7.41293 10.4828 7.45702 10.4421C7.50111 10.4013 7.53212 10.3484 7.54614 10.29C7.56016 10.2316 7.55655 10.1704 7.53577 10.1141C7.51499 10.0578 7.47797 10.0089 7.4294 9.97356C7.36426 9.92624 7.283 9.90673 7.20348 9.91932C7.12396 9.93191 7.05269 9.97558 7.00537 10.0407ZM2.69332 5.20282L6.67414 5.98664L7.15764 1.95867C6.22467 2.14838 5.3433 2.53618 4.57312 3.09586C3.80294 3.65554 3.16189 4.37405 2.69332 5.20282ZM6.57281 7.55462C6.51571 7.53606 6.45438 7.53485 6.3966 7.55115C6.33881 7.56744 6.28715 7.60051 6.24815 7.64616C6.20916 7.69182 6.18458 7.74801 6.17752 7.80764C6.17046 7.86726 6.18124 7.92764 6.2085 7.98114C6.23576 8.03464 6.27827 8.07885 6.33066 8.10819C6.38304 8.13753 6.44295 8.15067 6.50281 8.14596C6.56267 8.14125 6.61978 8.11889 6.66693 8.08172C6.71408 8.04454 6.74915 7.99422 6.7677 7.93712C6.79258 7.86055 6.78602 7.77724 6.74947 7.70551C6.71292 7.63377 6.64937 7.5795 6.57281 7.55462ZM5.54543 9.45983L1.86393 7.75528C1.75605 8.70121 1.85251 9.65927 2.14679 10.5647C2.44108 11.4701 2.92632 12.3019 3.56973 13.0036L5.54543 9.45983ZM11.2597 14.5805L8.5 11.6066L5.74127 14.581C6.60754 14.9759 7.5485 15.1802 8.50053 15.1801C9.45256 15.1801 10.3935 14.9756 11.2597 14.5805ZM15.1357 7.7544L11.4545 9.46013L13.4309 13.003C14.0742 12.3011 14.5593 11.4694 14.8534 10.5639C15.1475 9.65838 15.2438 8.7003 15.1357 7.7544Z" fill="black"/>
</svg>
