<svg width="17" height="17" viewBox="0 0 17 17" fill="none" xmlns="http://www.w3.org/2000/svg">
<path d="M11.3442 7.74154C11.4096 7.99 11.4423 8.245 11.4423 8.5V8.69288C11.426 8.8825 11.3965 9.07211 11.3475 9.25846C11.2854 9.50692 11.1873 9.74558 11.0565 9.96461C10.8015 10.4158 10.4288 10.7885 9.97769 11.0435C9.75538 11.1742 9.51673 11.2723 9.26827 11.3377C8.77135 11.4783 8.24173 11.4783 7.74481 11.3377C7.49635 11.2756 7.25769 11.1775 7.03865 11.0467C6.5875 10.7917 6.21481 10.419 5.95981 9.96788C5.82904 9.74558 5.73096 9.50692 5.66558 9.25846C5.59692 9.01 5.56096 8.755 5.55769 8.5C5.55769 8.24173 5.59365 7.98346 5.66558 7.735C5.72769 7.48654 5.82577 7.24788 5.95654 7.02885C6.21154 6.57769 6.58423 6.205 7.03538 5.95C7.25769 5.81923 7.49635 5.72115 7.74481 5.65577C7.99 5.59038 8.245 5.55769 8.5 5.55769C8.75827 5.55769 9.01654 5.59365 9.265 5.66558C9.51346 5.72769 9.75212 5.82577 9.97115 5.95654C10.4223 6.21154 10.795 6.58423 11.05 7.03538C11.1808 7.25769 11.2788 7.49308 11.3442 7.74154ZM17 8.3725V8.6275C17 9.27808 16.4769 9.80442 15.8263 9.80769C15.8263 9.80769 15.8263 9.80769 15.8231 9.80769H14.8619C14.7083 9.80442 14.571 9.90577 14.535 10.0562C14.3879 10.6217 14.1623 11.1644 13.8648 11.6646C13.7798 11.7954 13.7994 11.9719 13.9138 12.0798L14.5971 12.75C15.0548 13.211 15.0548 13.9563 14.5971 14.4173L14.4271 14.5873C13.9596 15.0287 13.2273 15.0287 12.7598 14.5873L12.0765 13.904C11.9687 13.7896 11.7921 13.77 11.6613 13.855C11.1579 14.1525 10.6185 14.3781 10.0529 14.5252C9.9025 14.5612 9.80115 14.6985 9.80442 14.8521V15.8231C9.80442 16.4737 9.27808 17 8.6275 17H8.3725C7.72192 17 7.19558 16.4769 7.19231 15.8263C7.19231 15.8263 7.19231 15.8263 7.19231 15.8231V14.8619C7.19558 14.7083 7.09423 14.571 6.94385 14.535C6.37827 14.3879 5.83885 14.1623 5.33538 13.8648C5.20462 13.7798 5.02808 13.7994 4.92019 13.9138L4.25 14.5971C3.7825 15.0385 3.05019 15.0385 2.58269 14.5971L2.41269 14.4271C1.955 13.9662 1.955 13.2208 2.41269 12.7598L3.09596 12.0765C3.21038 11.9687 3.23 11.7921 3.145 11.6613C2.8475 11.1612 2.62192 10.6185 2.47481 10.0529C2.43885 9.9025 2.30154 9.80115 2.14788 9.80442H1.17692C0.526346 9.80442 0 9.27808 0 8.6275V8.3725C0 7.72192 0.523077 7.19558 1.17365 7.19231C1.17365 7.19231 1.17365 7.19231 1.17692 7.19231H2.13808C2.29173 7.19558 2.42904 7.09423 2.465 6.94385C2.61212 6.37827 2.83769 5.83558 3.13519 5.33538C3.22019 5.20462 3.20058 5.02808 3.08615 4.92019L2.40288 4.25C1.94192 3.79231 1.94192 3.04692 2.40288 2.58596L2.57288 2.41596C3.03058 1.955 3.77596 1.955 4.23692 2.41596L4.92019 3.09923C5.02808 3.21365 5.20462 3.23327 5.33538 3.14827C5.83558 2.85077 6.37827 2.62519 6.94385 2.47808C7.09423 2.44212 7.19558 2.30481 7.19231 2.15115V1.18019C7.19558 0.526346 7.72192 0 8.3725 0H8.6275C9.27808 0 9.80442 0.523077 9.80769 1.17365C9.80769 1.17365 9.80769 1.17365 9.80769 1.17692V2.13808C9.80442 2.29173 9.90577 2.42904 10.0562 2.465C10.6217 2.61212 11.1644 2.83769 11.6646 3.13519C11.7954 3.22019 11.9719 3.20058 12.0798 3.08615L12.75 2.40288C13.2077 1.94192 13.9531 1.94192 14.414 2.40288L14.584 2.57288C15.045 3.03058 15.045 3.77596 14.584 4.23692L13.9008 4.92019C13.7863 5.02808 13.7667 5.20462 13.8517 5.33538C14.1492 5.83558 14.3748 6.37827 14.5219 6.94385C14.5579 7.09423 14.6952 7.19558 14.8488 7.19231H15.8198C16.4704 7.19231 16.9967 7.71865 16.9967 8.36923L17 8.3725ZM12.1256 8.5C12.1256 8.18615 12.0831 7.87231 11.9981 7.56827C11.9229 7.25769 11.8019 6.96346 11.6385 6.68885C11.3213 6.13635 10.8669 5.68192 10.3144 5.36481C10.0431 5.20135 9.74885 5.08038 9.44154 5.00519C8.82692 4.83846 8.18288 4.83846 7.56827 5.00519C7.25769 5.08038 6.96346 5.20135 6.68885 5.36481C6.13635 5.68192 5.68192 6.13635 5.36481 6.68885C5.20135 6.96019 5.08038 7.25442 5.00519 7.56173C4.83192 8.17308 4.83192 8.82365 5.00519 9.435C5.08038 9.74558 5.20135 10.0398 5.36481 10.3144C5.68192 10.8669 6.13635 11.3213 6.68885 11.6385C6.96019 11.8019 7.25442 11.9229 7.56173 11.9981C8.17308 12.1713 8.82365 12.1713 9.435 11.9981C9.74558 11.9229 10.0398 11.8019 10.3144 11.6385C10.8669 11.3213 11.3213 10.8669 11.6385 10.3144C11.8019 10.0431 11.9229 9.74885 11.9981 9.44154C12.0831 9.13423 12.1256 8.81711 12.1256 8.5Z" fill="black"/>
</svg>
