<svg width="21" height="17" viewBox="0 0 21 17" fill="none" xmlns="http://www.w3.org/2000/svg">
<path d="M0 10.8887C0.150632 13.1697 1.0329 15.2785 2.5177 17L4.28224 15.2355C3.22782 14.0089 2.62529 12.5026 2.47466 10.8887H0Z" fill="black"/>
<path d="M0 9.57419H2.47466C2.60377 7.91725 3.27086 6.41093 4.28224 5.2274L2.5177 3.48438C1.07594 5.1198 0.150632 7.25016 0 9.57419Z" fill="black"/>
<path d="M9.56638 0C7.24235 0.150632 5.11199 1.07594 3.47656 2.53922L5.21958 4.28224C6.40312 3.27086 7.90943 2.62529 9.56638 2.47466V0Z" fill="black"/>
<path d="M16.1412 1.95821C16.1627 1.93669 16.1842 1.93669 16.2058 1.91517C14.6779 0.817714 12.8704 0.129113 10.8906 0V2.47466C12.0526 2.56074 13.1501 2.92656 14.0969 3.48604C14.6995 3.03415 15.3881 2.5177 16.1412 1.95821Z" fill="black"/>
<path d="M16.1562 15.2355L17.9208 16.9785C19.4271 15.2785 20.3094 13.1481 20.4385 10.8887H17.9638C17.8132 12.5026 17.2107 14.0089 16.1562 15.2355Z" fill="black"/>
<path d="M17.9645 9.57686H20.4392C20.3101 7.59713 19.6215 5.78955 18.5455 4.26172C18.524 4.28324 18.524 4.30476 18.5025 4.32628C17.943 5.07943 17.405 5.76803 16.9531 6.37056C17.5126 7.31739 17.8569 8.41484 17.9645 9.57686Z" fill="black"/>
<path d="M17.4552 3.50538C17.7135 3.16108 17.2831 2.7307 16.9388 2.98893C15.0236 4.43068 12.2907 6.49649 10.8275 7.6585C10.6338 7.61546 10.4401 7.59395 10.2249 7.59395C8.76166 7.59395 7.57812 8.77748 7.57812 10.2408C7.57812 11.704 8.76166 12.8876 10.2249 12.8876C11.6882 12.8876 12.8717 11.704 12.8717 10.2408C12.8717 10.0256 12.8502 9.8319 12.8072 9.63823C13.9262 8.17495 16.0135 5.42055 17.4552 3.50538Z" fill="black"/>
</svg>
